# xmcd
# 
# Track frame offsets:
#     182
#     20650
#     36560
#     56420
#     80327
#     102740
#     122957
#     142595
#     160627
#     181787
#     201270
#     221210
#     239532
# 
# Disc length: 3522
# 
# Revision: 3
# Processed by: cddbd v1.5.2PL0 Copyright (c) Steve Scherf et al.
# Submitted via: fre:ac v1.0.17
# 
DISCID=b90dc00d
DTITLE=Mic Murphy - Touch
DYEAR=1991
DGENRE=blues
TTITLE0=Windows Of The World
TTITLE1=Give Me Just A Little More Time
TTITLE2=Fit To Be Tied
TTITLE3=Sunshine
TTITLE4=Touch
TTITLE5=Sleep With Me
TTITLE6=My Little Princess
TTITLE7=Family Tree
TTITLE8=More Power To You
TTITLE9=You Have An Effect On Me
TTITLE10=I Dream About You
TTITLE11=Ghetto In Your Mind
TTITLE12=The Price Of Desire (bonusTrack)
EXTD=
EXTT0=
EXTT1=
EXTT2=
EXTT3=
EXTT4=
EXTT5=
EXTT6=
EXTT7=
EXTT8=
EXTT9=
EXTT10=
EXTT11=
EXTT12=
PLAYORDER=
